<svg id="Layer_1" data-name="Layer 1" xmlns="http://www.w3.org/2000/svg" viewBox="0 0 100 100"><defs><style>.cls-1{fill:#fff;}</style></defs><title>assets</title><path class="cls-1" d="M77.76,76.67a8.15,8.15,0,0,1-8.45-8.2,8.3,8.3,0,0,1,8.49-8.3,8.15,8.15,0,0,1,8.45,8.21,8.29,8.29,0,0,1-8.49,8.29ZM67.84,40.48V26.39a2.73,2.73,0,1,1,5.46,0V40.48a2.73,2.73,0,1,1-5.46,0ZM63.52,76.4,60.2,71.45H57.92V76.4H54v-16h7.32c3.75,0,6.08,2.05,6.08,5.36a5.05,5.05,0,0,1-3.18,5l3.87,5.66ZM51.22,42.86V21.62a2.73,2.73,0,0,1,5.46,0V42.86a2.73,2.73,0,0,1-5.46,0ZM50.16,76.4h-3.9v-16h3.9v16ZM42.91,35.71V14.48a2.73,2.73,0,1,1,5.46,0V35.71a2.73,2.73,0,1,1-5.46,0ZM37.06,76.62a10.08,10.08,0,0,1-6.73-2.54l-.18-.16,2.32-2.79.19.16a6.85,6.85,0,0,0,4.46,1.82c1.24,0,2-.45,2-1.21s-.2-1.07-2.93-1.77c-3-.77-5.31-1.63-5.31-5,0-2.94,2.33-5,5.66-5a9.15,9.15,0,0,1,5.9,2l.18.15-2,3-.21-.14a6.93,6.93,0,0,0-3.88-1.48c-1.06,0-1.74.43-1.74,1.1,0,.83.37,1.12,3.15,1.83C41,67.45,43,68.58,43,71.54c0,3.15-2.27,5.09-5.93,5.09ZM26.3,40.48V26.39a2.73,2.73,0,1,1,5.46,0V40.48a2.73,2.73,0,1,1-5.46,0Zm2.16,33.35a8.12,8.12,0,0,1-6.53,2.84,8,8,0,0,1-8.18-8.2,8.11,8.11,0,0,1,8.31-8.3,8.26,8.26,0,0,1,6.28,2.46l.17.17L26,65.66l-.19-.17A5.48,5.48,0,0,0,22,63.8,4.63,4.63,0,0,0,22,73a5.35,5.35,0,0,0,3.9-1.75l.18-.16,2.5,2.53-.16.18Zm6.14-54.58a2.73,2.73,0,1,1,5.46,0V38.09a2.73,2.73,0,1,1-5.46,0V19.24ZM62.26,49.85a2.93,2.93,0,1,1-2.93,2.93,2.93,2.93,0,0,1,2.93-2.93ZM59.53,14.48a2.73,2.73,0,1,1,5.46,0V45.24a2.73,2.73,0,1,1-5.46,0V14.48ZM50,0a50,50,0,1,0,50,50A50,50,0,0,0,50,0Z"/><path class="cls-1" d="M77.76,63.8a4.38,4.38,0,0,0-4.39,4.57A4.44,4.44,0,0,0,77.8,73a4.38,4.38,0,0,0,4.39-4.57,4.44,4.44,0,0,0-4.44-4.66Z"/><path class="cls-1" d="M61,64H57.92v3.94h3.2c1.47,0,2.36-.72,2.36-1.94,0-1.67-1.32-2-2.42-2Z"/></svg>